{
  "accessors": [
    {
      "bufferView": 2,
      "componentType": 5126,
      "count": 2997,
      "max": [
        2.4178102016448975,
        2.4178099632263184,
        4.813327312469482
      ],
      "min": [
        -2.4178102016448975,
        -2.417811155319214,
        -4.5180888175964355
      ],
      "type": "VEC3"
    },
    {
      "bufferView": 2,
      "byteOffset": 35964,
      "componentType": 5126,
      "count": 2997,
      "max": [
        0.9987996220588684,
        0.9987996220588684,
        1.0
      ],
      "min": [
        -0.9987996220588684,
        -0.9987996220588684,
        -1.0
      ],
      "type": "VEC3"
    },
    {
      "bufferView": 3,
      "componentType": 5126,
      "count": 2997,
      "max": [
        1.0,
        0.9999960660934448,
        0.9976149797439575,
        1.0
      ],
      "min": [
        -1.0,
        -0.9999960660934448,
        -0.9976333379745483,
        1.0
      ],
      "type": "VEC4"
    },
    {
      "bufferView": 1,
      "componentType": 5126,
      "count": 2997,
      "max": [
        0.9970356225967407,
        0.9838294386863708
      ],
      "min": [
        0.0009550154209136963,
        0.0025791823863983154
      ],
      "type": "VEC2"
    },
    {
      "bufferView": 1,
      "byteOffset": 23976,
      "componentType": 5126,
      "count": 2997,
      "max": [
        0.9970356225967407,
        0.9838294386863708
      ],
      "min": [
        0.0009550154209136963,
        0.0025791823863983154
      ],
      "type": "VEC2"
    },
    {
      "bufferView": 0,
      "componentType": 5125,
      "count": 8682,
      "type": "SCALAR"
    }
  ],
  "asset": {
    "extras": {
      "author": "Chris Sweetwood (https://sketchfab.com/ChrisSweetwood)",
      "license": "CC-BY-SA-4.0 (http://creativecommons.org/licenses/by-sa/4.0/)",
      "source": "https://sketchfab.com/3d-models/soda-can-high-poly-08be81ca5fa74718b5d95ac6a5a928f2",
      "title": "Soda Can (High Poly)"
    },
    "generator": "Sketchfab-12.66.0",
    "version": "2.0"
  },
  "bufferViews": [
    {
      "buffer": 0,
      "byteLength": 34728,
      "name": "floatBufferViews",
      "target": 34963
    },
    {
      "buffer": 0,
      "byteLength": 47952,
      "byteOffset": 34728,
      "byteStride": 8,
      "name": "floatBufferViews",
      "target": 34962
    },
    {
      "buffer": 0,
      "byteLength": 71928,
      "byteOffset": 82680,
      "byteStride": 12,
      "name": "floatBufferViews",
      "target": 34962
    },
    {
      "buffer": 0,
      "byteLength": 47952,
      "byteOffset": 154608,
      "byteStride": 16,
      "name": "floatBufferViews",
      "target": 34962
    }
  ],
  "buffers": [
    {
      "byteLength": 202560,
      "uri": "scene.bin"
    }
  ],
  "extensionsUsed": [
    "KHR_materials_clearcoat"
  ],
  "images": [
    {
      "uri": "textures/CanMat_baseColor.png"
    },
    {
      "uri": "textures/CanMat_metallicRoughness.png"
    },
    {
      "uri": "textures/CanMat_normal.png"
    }
  ],
  "materials": [
    {
      "doubleSided": true,
      "extensions": {
        "KHR_materials_clearcoat": {
          "clearcoatFactor": 0.37868078482875195,
          "clearcoatRoughnessFactor": 0.026030741355513805
        }
      },
      "name": "CanMat",
      "normalTexture": {
        "index": 2
      },
      "occlusionTexture": {
        "index": 1
      },
      "pbrMetallicRoughness": {
        "baseColorTexture": {
          "index": 0
        },
        "metallicRoughnessTexture": {
          "index": 1
        },
        "roughnessFactor": 0.23275662890879134
      }
    }
  ],
  "meshes": [
    {
      "name": "Cylinder.001_CanMat_0",
      "primitives": [
        {
          "attributes": {
            "NORMAL": 1,
            "POSITION": 0,
            "TANGENT": 2,
            "TEXCOORD_0": 3,
            "TEXCOORD_1": 4
          },
          "indices": 5,
          "material": 0,
          "mode": 4
        }
      ]
    }
  ],
  "nodes": [
    {
      "children": [
        1
      ],
      "matrix": [
        1.0,
        0.0,
        0.0,
        0.0,
        0.0,
        2.220446049250313e-16,
        -1.0,
        0.0,
        0.0,
        1.0,
        2.220446049250313e-16,
        0.0,
        0.0,
        0.0,
        0.0,
        1.0
      ],
      "name": "Sketchfab_model"
    },
    {
      "children": [
        2
      ],
      "matrix": [
        1.0,
        0.0,
        0.0,
        0.0,
        0.0,
        0.0,
        1.0,
        0.0,
        0.0,
        -1.0,
        0.0,
        0.0,
        0.0,
        0.0,
        0.0,
        1.0
      ],
      "name": "971c8f56b00b4751b6c873cc5758169b.fbx"
    },
    {
      "children": [
        3
      ],
      "name": "RootNode"
    },
    {
      "children": [
        4
      ],
      "matrix": [
        35.36808395385742,
        0.0,
        0.0,
        0.0,
        0.0,
        -5.762192266549782e-06,
        -35.36808395385695,
        0.0,
        0.0,
        35.36808395385695,
        -5.762192266549782e-06,
        0.0,
        0.0,
        0.0,
        0.0,
        1.0
      ],
      "name": "Cylinder.001"
    },
    {
      "mesh": 0,
      "name": "Cylinder.001_CanMat_0"
    }
  ],
  "samplers": [
    {
      "magFilter": 9729,
      "minFilter": 9987,
      "wrapS": 10497,
      "wrapT": 10497
    }
  ],
  "scene": 0,
  "scenes": [
    {
      "name": "Sketchfab_Scene",
      "nodes": [
        0
      ]
    }
  ],
  "textures": [
    {
      "sampler": 0,
      "source": 0
    },
    {
      "sampler": 0,
      "source": 1
    },
    {
      "sampler": 0,
      "source": 2
    }
  ]
}
